<svg xmlns="http://www.w3.org/2000/svg" viewBox="0 0 1024 1024">
<defs>
 <radialGradient id="bg"><stop offset="0" stop-color="#19140d"/><stop offset="1" stop-color="#050505"/></radialGradient>
 <linearGradient id="gold" x1="0" y1="0" x2="1" y2="1"><stop stop-color="#fff0a8"/><stop offset=".35" stop-color="#d7af58"/><stop offset=".7" stop-color="#8d6420"/><stop offset="1" stop-color="#f3d27b"/></linearGradient>
</defs>
<rect width="1024" height="1024" rx="190" fill="url(#bg)"/>
<rect x="34" y="34" width="956" height="956" rx="160" fill="none" stroke="url(#gold)" stroke-width="12"/>
<circle cx="512" cy="475" r="285" fill="none" stroke="#8d6b2b" stroke-width="7" opacity=".75"/>
<path d="M330 305 L512 190 L694 305 L642 352 L512 270 L382 352 Z" fill="url(#gold)"/>
<path d="M320 610 L470 355 L605 355 L705 450 L540 725 L430 725 L555 490 L485 490 L400 640 Z" fill="url(#gold)"/>
<path d="M410 680 L512 555 L614 680 L575 745 L512 660 L449 745 Z" fill="#8f6925"/>
<path d="M405 255 L435 205 L465 255 L512 175 L559 255 L589 205 L619 255 L600 285 L424 285 Z" fill="url(#gold)"/>
<text x="512" y="875" text-anchor="middle" fill="#e9cf91" font-family="Georgia,serif" font-weight="bold" font-size="82" letter-spacing="9">ZELVYRA</text>
</svg>
